:version 1.10
:name ASF
:units
  mass 1
  length 1
  angle deg
:documentation
  ASF file generated by Kaydara
:root
  axis xyz
  order  tx ty tz rx ry rz
  position 0 0 0
  orientation 0 0 0
:bonedata
  begin
    id 1
    name lfemurDummy
    direction 0.61522 -0.761478 0.204097
    length 5.68318
    axis 0 -0 0 xyz
  end
  begin
    id 2
    name lfemur
    direction 0.34202 -0.939693 -5.84747e-008
    length 16.9147
    axis 0 -0 20 xyz
    dof rx ry rz
    limits( -inf , inf )
( -inf , inf )
( -inf , inf )

  end
  begin
    id 3
    name ltibia
    direction 0.34202 -0.939693 1.20839e-009
    length 18.0532
    axis 0 -0 20 xyz
    dof rz ry rx
    limits( -inf , inf )
( -inf , inf )
( -inf , inf )

  end
  begin
    id 4
    name lfoot
    direction 0.0841971 -0.23133 0.969225
    length 5.23822
    axis -90 7.62852e-016 20 xyz
    dof ry rx rz
    limits( -inf , inf )
( -inf , inf )
( -inf , inf )

  end
  begin
    id 5
    name ltoes
    direction 0 0 0
    length 0
    axis 0 0 0 xyz
    dof rz ry rx
    limits( -inf , inf )
( -inf , inf )
( -inf , inf )

  end
  begin
    id 6
    name rfemurDummy
    direction -0.625247 -0.75382 0.202044
    length 5.74091
    axis 0 -0 0 xyz
  end
  begin
    id 7
    name rfemur
    direction -0.34202 -0.939693 -1.47013e-008
    length 16.4922
    axis 0 -0 -20 xyz
    dof rx ry rz
    limits( -inf , inf )
( -inf , inf )
( -inf , inf )

  end
  begin
    id 8
    name rtibia
    direction -0.34202 -0.939693 -7.74345e-010
    length 18.2421
    axis 0 -0 -20 xyz
    dof rz ry rx
    limits( -inf , inf )
( -inf , inf )
( -inf , inf )

  end
  begin
    id 9
    name rfoot
    direction -0.124331 -0.341598 0.931586
    length 5.45787
    axis -90 -7.62852e-016 -20 xyz
    dof ry rx rz
    limits( -inf , inf )
( -inf , inf )
( -inf , inf )

  end
  begin
    id 10
    name rtoes
    direction 0 0 0
    length 0
    axis 0 0 0 xyz
    dof rz ry rx
    limits( -inf , inf )
( -inf , inf )
( -inf , inf )

  end
  begin
    id 11
    name lowerbackDummy
    direction 0 0 0
    length 0
    axis 0 -0 0 xyz
  end
  begin
    id 12
    name lowerback
    direction -0.0218484 0.994884 -0.0986304
    length 4.45607
    axis 0 -0 0 xyz
    dof rx ry rz
    limits( -inf , inf )
( -inf , inf )
( -inf , inf )

  end
  begin
    id 13
    name upperback
    direction -0.00973057 0.999717 -0.0217111
    length 4.47449
    axis 0 -0 0 xyz
    dof rx ry rz
    limits( -inf , inf )
( -inf , inf )
( -inf , inf )

  end
  begin
    id 14
    name thorax
    direction -0.000928171 0.999699 0.0245198
    length 4.50973
    axis 0 -0 0 xyz
    dof rx ry rz
    limits( -inf , inf )
( -inf , inf )
( -inf , inf )

  end
  begin
    id 15
    name rclavicle
    direction -0.9009 0.425937 -0.0834055
    length 7.28587
    axis 0 -0 0 xyz
    dof rx ry rz
    limits( -inf , inf )
( -inf , inf )
( -inf , inf )

  end
  begin
    id 16
    name rhumerus
    direction -1 -2.23604e-007 -1.42637e-007
    length 13.5704
    axis 180 30 90 xyz
    dof rx ry rz
    limits( -inf , inf )
( -inf , inf )
( -inf , inf )

  end
  begin
    id 17
    name rradius
    direction -1 5.68281e-008 -4.4952e-007
    length 8.06782
    axis 180 30 90 xyz
    dof rz ry rx
    limits( -inf , inf )
( -inf , inf )
( -inf , inf )

  end
  begin
    id 18
    name rwrist
    direction -1 1.51393e-007 1.38143e-007
    length 4.03391
    axis -90 -90 0 xyz
    dof rz rx ry
    limits( -inf , inf )
( -inf , inf )
( -inf , inf )

  end
  begin
    id 19
    name rthumb
    direction 0 0 0
    length 0
    axis 0 0 0 xyz
    dof ry rx rz
    limits( -inf , inf )
( -inf , inf )
( -inf , inf )

  end
  begin
    id 20
    name rhand
    direction -1 -3.34077e-007 -5.59631e-007
    length 1.29744
    axis -90 -90 0 xyz
    dof ry rx rz
    limits( -inf , inf )
( -inf , inf )
( -inf , inf )

  end
  begin
    id 21
    name rfingers
    direction 0 0 0
    length 0
    axis 0 0 0 xyz
    dof rz ry rx
    limits( -inf , inf )
( -inf , inf )
( -inf , inf )

  end
  begin
    id 22
    name lclavicle
    direction 0.940017 0.332249 -0.0773232
    length 8.29589
    axis 0 -0 0 xyz
    dof rx ry rz
    limits( -inf , inf )
( -inf , inf )
( -inf , inf )

  end
  begin
    id 23
    name lhumerus
    direction 1 7.41158e-008 -1.44768e-008
    length 12.0042
    axis 180 -30 -90 xyz
    dof rx ry rz
    limits( -inf , inf )
( -inf , inf )
( -inf , inf )

  end
  begin
    id 24
    name lradius
    direction 1 -1.32972e-007 3.10821e-007
    length 8.1902
    axis 180 -30 -90 xyz
    dof rz ry rx
    limits( -inf , inf )
( -inf , inf )
( -inf , inf )

  end
  begin
    id 25
    name lwrist
    direction 1 3.08957e-007 4.01394e-007
    length 4.09509
    axis -90 90 0 xyz
    dof rz rx ry
    limits( -inf , inf )
( -inf , inf )
( -inf , inf )

  end
  begin
    id 26
    name lthumb
    direction 0 0 0
    length 0
    axis 0 0 0 xyz
    dof ry rx rz
    limits( -inf , inf )
( -inf , inf )
( -inf , inf )

  end
  begin
    id 27
    name lhand
    direction 1 -1.64125e-007 -6.99514e-007
    length 1.37229
    axis -90 90 0 xyz
    dof ry rx rz
    limits( -inf , inf )
( -inf , inf )
( -inf , inf )

  end
  begin
    id 28
    name lfingers
    direction 0 0 0
    length 0
    axis 0 0 0 xyz
    dof rz ry rx
    limits( -inf , inf )
( -inf , inf )
( -inf , inf )

  end
  begin
    id 29
    name lowerneck
    direction -0.030798 0.998024 0.0547665
    length 3.93918
    axis 0 -0 0 xyz
    dof rx ry rz
    limits( -inf , inf )
( -inf , inf )
( -inf , inf )

  end
  begin
    id 30
    name upperneck
    direction 0.0531588 0.996611 -0.0627736
    length 3.95491
    axis 0 -0 0 xyz
    dof rx ry rz
    limits( -inf , inf )
( -inf , inf )
( -inf , inf )

  end
  begin
    id 31
    name head
    direction 0 0 0
    length 0
    axis 0 0 0 xyz
    dof rx ry rz
    limits( -inf , inf )
( -inf , inf )
( -inf , inf )

  end
:hierarchy
  begin
    root lfemurDummy rfemurDummy lowerbackDummy
    lfemurDummy lfemur
    lfemur ltibia
    ltibia lfoot
    lfoot ltoes
    rfemurDummy rfemur
    rfemur rtibia
    rtibia rfoot
    rfoot rtoes
    lowerbackDummy lowerback
    lowerback upperback
    upperback thorax
    thorax rclavicle lclavicle lowerneck
    rclavicle rhumerus
    rhumerus rradius
    rradius rwrist
    rwrist rthumb rhand
    rhand rfingers
    lclavicle lhumerus
    lhumerus lradius
    lradius lwrist
    lwrist lthumb lhand
    lhand lfingers
    lowerneck upperneck
    upperneck head
  end

:SAMPLES-PER-SECOND 30
:FULLY-SPECIFIED
:DEGREES
19
root  2.723022146 39.35022129 3.051977833 -9.687011719 -12.81100464 5.005981445
lowerback  7.18377018 0.9079909921 1.075080037
upperback  1.716549993 1.350260019 2.69701004
thorax  -2.295209885 0.6677020192 2.055649996
lowerneck  -8.263339996 4.272789955 -5.03057003
upperneck  16.90530014 6.346920013 1.447649956
head  6.287119865 2.873919964 1.772040009
lclavicle  0 -9.442270133e-015 7.951389973e-016
lhumerus  4.230629921 -19.96680069 84.93640137
lradius  2.139967954e-031 -2.808804229e-031 127.3030014
lwrist  -1.412450015e-030 -3.531125038e-031 7.835919857
lhand  -1.496451383e-031 -27.76390076 20.11240005
lfingers  90 7.125020027 -90
lthumb  89.89689403 5.08795885 91.16245106
rclavicle  0 -9.442270133e-015 7.951389973e-016
rhumerus  6.68614006 28.49250031 -78.42150116
rradius  -2.583929837e-031 2.406688728e-031 137.0339966
rwrist  7.062250077e-031 -1.765562519e-031 -7.473450184
rhand  -7.920061211e-032 -33.2840004 9.303460121
rfingers  -90 -7.125020027 -90
rthumb  -92.93752616 -24.25625642 -97.11982154
rfemur  -2.903409958 14.16230011 7.127769947
rtibia  -0 0 56.66109848
rfoot  -0 -15.15629959 -9.664319992
rtoes  5.373923086 19.29304026 -105.8922705
lfemur  -21.50130081 8.857870102 -20.71780014
ltibia  -0 0 50.40629959
lfoot  4.496888109e-032 -11.0241003 0.4642879963
ltoes  -4.250644065 -19.5611806 -102.515957
20
root  2.6701777 39.16866573 3.126977748 -10.10498047 -10.56500244 4.965026855
lowerback  6.944489956 0.9749600291 1.332499981
upperback  1.492259979 1.469519973 3.064320087
thorax  -2.400170088 0.7275540233 2.282219887
lowerneck  -8.352829933 3.935369968 -5.269800186
upperneck  17.36520004 6.006309986 1.093569994
head  6.468100071 2.656009912 1.687890053
lclavicle  0 -9.442270133e-015 7.951389973e-016
lhumerus  5.00425005 -19.93059921 85.14520264
lradius  2.119912296e-031 -2.823971653e-031 126.8949966
lwrist  -7.062250077e-031 -3.531125038e-031 7.761129856
lhand  -1.496451383e-031 -27.76390076 20.11240005
lfingers  90 7.125020027 -90
lthumb  89.89689403 5.08795885 91.16245106
rclavicle  0 -9.442270133e-015 7.951389973e-016
rhumerus  7.432750225 28.85689926 -78.09559631
rradius  -2.579767563e-031 2.4111498e-031 136.9349976
rwrist  7.062250077e-031 -0 -7.028679848
rhand  -7.920061211e-032 -33.2840004 9.303460121
rfingers  -90 -7.125020027 -90
rthumb  -92.93752616 -24.25625642 -97.11982154
rfemur  -1.44509995 13.64840031 7.204520226
rtibia  -0 0 57.14080048
rfoot  -0 -13.62240028 -9.078399658
rtoes  5.373923086 19.29304026 -105.8922705
lfemur  -21.35230064 9.7895298 -21.30470085
ltibia  -0 0 50.6841011
lfoot  5.07358644e-032 -11.83990002 -0.5144529939
ltoes  -4.250644065 -19.5611806 -102.515957
21
root  2.625000008 38.96222152 3.189155624 -10.47802734 -8.330001831 4.552001953
lowerback  6.626339912 1.058310032 2.153650045
upperback  1.31230998 1.644009948 3.429729939
thorax  -2.401690006 0.8105760217 2.18772006
lowerneck  -7.991290092 3.611330032 -5.486820221
upperneck  17.31979942 5.632279873 0.7870140076
head  6.408979893 2.441499949 1.589140058
lclavicle  0 -9.442270133e-015 7.951389973e-016
lhumerus  5.692269802 -20.00760078 85.32150269
lradius  2.10648245e-031 -2.83400348e-031 126.6230011
lwrist  -7.062250077e-031 1.765562519e-031 7.933430195
lhand  -1.496451383e-031 -27.76390076 20.11240005
lfingers  90 7.125020027 -90
lthumb  89.89689403 5.08795885 91.16245106
rclavicle  0 -9.442270133e-015 7.951389973e-016
rhumerus  7.952549934 29.27960014 -78.07440186
rradius  -2.573235395e-031 2.418119856e-031 136.7799988
rwrist  0 -0 -6.29820013
rhand  -7.920061211e-032 -33.2840004 9.303460121
rfingers  -90 -7.125020027 -90
rthumb  -92.93752616 -24.25625642 -97.11982154
rfemur  0.009233180434 13.19219971 7.802420139
rtibia  -0 0 57.68289948
rfoot  -0 -13.8501997 -9.070329666
rtoes  5.373923086 19.29304026 -105.8922705
lfemur  -21.45050049 10.40550041 -21.33399963
ltibia  -0 0 51.36930084
lfoot  4.515267639e-032 -12.16320038 -1.550459981
ltoes  -4.250644065 -19.5611806 -102.515957
22
root  2.589288847 38.75266548 3.23937784 -10.84399414 -5.960006714 4.307006836
lowerback  6.187920094 1.17245996 2.973999977
upperback  1.175300002 1.842030048 3.626760006
thorax  -2.283639908 0.9051480293 1.922330022
lowerneck  -7.61495018 3.167079926 -5.434810162
upperneck  17.19210052 5.08660984 0.2668890059
head  6.339250088 2.146110058 1.366539955
lclavicle  0 -9.442270133e-015 7.951389973e-016
lhumerus  6.105979919 -20.29310036 85.51730347
lradius  2.096279479e-031 -2.841558794e-031 126.4169998
lwrist  -7.062250077e-031 -1.765562519e-031 8.166879654
lhand  -1.496451383e-031 -27.76390076 20.11240005
lfingers  90 7.125020027 -90
lthumb  89.89689403 5.08795885 91.16245106
rclavicle  0 -9.442270133e-015 7.951389973e-016
rhumerus  8.343729973 29.4803009 -78.18959808
rradius  -2.570405901e-031 2.421127329e-031 136.7129974
rwrist  0 -0 -5.734950066
rhand  -7.920061211e-032 -33.2840004 9.303460121
rfingers  -90 -7.125020027 -90
rthumb  -92.93752616 -24.25625642 -97.11982154
rfemur  1.373980045 12.56550026 8.176609993
rtibia  -0 0 58.14559937
rfoot  -0 -14.02659988 -8.417960167
rtoes  5.373923086 19.29304026 -105.8922705
lfemur  -21.80120087 10.42300034 -21.44319916
ltibia  -0 0 52.37779999
lfoot  4.516523558e-032 -12.23690033 -2.858819962
ltoes  -4.250644065 -19.5611806 -102.515957
23
root  2.560466669 38.56866791 3.28173337 -11.25097656 -3.654998779 4.039978027
lowerback  5.839419842 1.311849952 3.778889894
upperback  1.167469978 2.065010071 3.879240036
thorax  -2.080749989 1.014089942 1.724099994
lowerneck  -7.902510166 2.634670019 -5.548110008
upperneck  17.38269997 4.494840145 -0.2314440012
head  6.48115015 1.807450056 1.193449974
lclavicle  0 -9.442270133e-015 7.951389973e-016
lhumerus  6.75688982 -20.39529991 85.73989868
lradius  2.088932369e-031 -2.846964277e-031 126.2689972
lwrist  -7.062250077e-031 -3.531125038e-031 8.057880402
lhand  -1.496451383e-031 -27.76390076 20.11240005
lfingers  90 7.125020027 -90
lthumb  89.89689403 5.08795885 91.16245106
rclavicle  0 -9.442270133e-015 7.951389973e-016
rhumerus  9.000829697 29.35219955 -77.96440125
rradius  -2.575470851e-031 2.415738796e-031 136.8329926
rwrist  1.412450015e-030 -3.531125038e-031 -5.773459911
rhand  -7.920061211e-032 -33.2840004 9.303460121
rfingers  -90 -7.125020027 -90
rthumb  -92.93752616 -24.25625642 -97.11982154
rfemur  2.603579998 11.94219971 8.616049767
rtibia  -0 0 58.57529831
rfoot  -0 -14.6704998 -7.781509876
rtoes  5.373923086 19.29304026 -105.8922705
lfemur  -22.1909008 10.12010002 -21.39509964
ltibia  -0 0 53.57329941
lfoot  4.511587127e-032 -11.94439983 -4.734039783
ltoes  -4.250644065 -19.5611806 -102.515957
24
root  2.535688971 38.38999891 3.322888923 -11.72802734 -1.707000732 3.398986816
lowerback  5.558919907 1.45065999 4.92565012
upperback  0.9994480014 2.320729971 4.384309769
thorax  -2.074179888 1.13488996 1.594720006
lowerneck  -7.475259781 2.203219891 -5.934100151
upperneck  17.44099998 4.023019791 -0.7060530186
head  6.446010113 1.520030022 1.064560056
lclavicle  0 -9.442270133e-015 7.951389973e-016
lhumerus  6.882160187 -20.25139999 86.25360107
lradius  2.096229912e-031 -2.841595361e-031 126.4160004
lwrist  -1.412450015e-030 -1.765562519e-031 8.021400452
lhand  -1.496451383e-031 -27.76390076 20.11240005
lfingers  90 7.125020027 -90
lthumb  89.89689403 5.08795885 91.16245106
rclavicle  0 -9.442270133e-015 7.951389973e-016
rhumerus  9.142910004 29.40589905 -77.88700104
rradius  -2.582249304e-031 2.408491763e-031 136.9940033
rwrist  0 -0 -5.668980122
rhand  -7.920061211e-032 -33.2840004 9.303460121
rfingers  -90 -7.125020027 -90
rthumb  -92.93752616 -24.25625642 -97.11982154
rfemur  3.727679968 11.54080009 9.607469559
rtibia  -0 0 59.04320145
rfoot  -0 -15.15909958 -7.394949913
rtoes  5.373923086 19.29304026 -105.8922705
lfemur  -22.56570053 9.862000465 -20.74419975
ltibia  -0 0 54.89160156
lfoot  -0 -11.30169964 -6.841849804
ltoes  -4.250644065 -19.5611806 -102.515957
